Coordinates
version=1
nRows=16
nColumns=42
inDegrees=yes

Units are S.I. units (second, meters, Newtons, ...)
If the header above contains a line with 'inDegrees', this indicates whether rotational values are in degrees (yes) or radians (no).

endheader
time	pelvis_tilt	pelvis_list	pelvis_rotation	pelvis_tx	pelvis_ty	pelvis_tz	hip_flexion_r	hip_adduction_r	hip_rotation_r	knee_angle_r	knee_adduction_r	knee_angle_r_beta	ankle_angle_r	subtalar_angle_r	mtp_angle_r	hip_flexion_l	hip_adduction_l	hip_rotation_l	knee_angle_l	knee_adduction_l	knee_angle_l_beta	ankle_angle_l	subtalar_angle_l	mtp_angle_l	lumbar_extension	lumbar_bending	lumbar_rotation	arm_flex_r	arm_add_r	arm_rot_r	elbow_flex_r	pro_sup_r	wrist_flex_r	wrist_dev_r	arm_flex_l	arm_add_l	arm_rot_l	elbow_flex_l	pro_sup_l	wrist_flex_l	wrist_dev_l
      2.00000000	      3.31452743	     10.70011411	     93.22611963	      0.47934102	      0.97463752	     -0.66103360	    -11.95762366	      5.38973285	     -2.90727106	     12.78008777	      5.96791786	      0.22305461	      8.83064302	     -5.45150277	    -11.59384577	     15.76572000	     -3.39070506	     -2.03398228	     58.56210632	      5.46256159	      1.02210157	      2.96092752	    -16.15543566	     -9.27582185	    -20.91222304	      6.68966981	      3.14359290	      5.91684977	    -16.28113190	    -10.54965359	     49.39539450	     90.00000001	      0.00000000	      0.00000000	     -0.81408800	    -10.89493413	      3.56859143	     39.04956145	     90.00000001	      0.00000000	      0.00000000
      2.01000000	      3.14880824	     10.27798426	     93.21283324	      0.47982210	      0.97431157	     -0.66017146	    -12.82870315	      5.24410754	     -2.72037077	     11.93110096	      5.96791786	      0.20823700	      8.98810612	     -5.24588537	    -11.40940544	     17.10630122	     -3.20775634	     -2.17334803	     55.98858780	      5.46256159	      0.97718520	      3.45937941	    -15.51879386	     -9.10534704	    -20.61264312	      6.41408654	      3.29579850	      6.57734808	    -16.47266991	    -10.49636437	     50.52181740	     90.00000001	      0.00000000	      0.00000000	     -1.52335681	    -10.74947844	      3.40415100	     38.42829335	     90.00000001	      0.00000000	      0.00000000
      2.02000000	      2.88053016	     10.42648796	     92.93945767	      0.48001558	      0.97467825	     -0.65908771	    -14.34849191	      4.88721459	     -2.34529641	     11.00901175	      5.96791786	      0.19214350	      8.99260197	     -5.00810356	    -11.11218105	     17.47585744	     -2.95173347	     -2.48443089	     52.83460699	      5.46256159	      0.92213785	      3.83172657	    -14.97249818	     -8.76463846	    -21.04957054	      6.05575961	      3.71904127	      7.29229044	    -16.85058085	    -10.32692615	     51.87213173	     90.00000001	      0.00000000	      0.00000000	     -1.94659903	    -10.46329757	      2.98443684	     37.51981303	     90.00000001	      0.00000000	      0.00000000
      2.03000000	      2.84727502	     10.07920592	     92.80049157	      0.47998339	      0.97395390	     -0.65824285	    -15.23784382	      4.77896998	     -2.17594005	     10.27308243	      5.96791786	      0.17929911	      9.03186667	     -4.62885526	    -10.96981954	     18.40069839	     -2.89251226	     -2.56752709	     49.64761841	      5.46256159	      0.86651441	      4.11903861	    -14.29418162	     -8.53419762	    -20.83525708	      5.98078524	      3.92791608	      8.00279227	    -17.19937684	    -10.10125005	     52.98130143	     90.00000001	      0.00000000	      0.00000000	     -2.66111205	    -10.28545550	      2.89082976	     36.86629559	     90.00000001	      0.00000000	      0.00000000
      2.04000000	      2.68192802	     10.02319524	     92.59522638	      0.47999352	      0.97359351	     -0.65725807	    -16.47476408	      4.51391440	     -1.91711067	      9.44830664	      5.96791786	      0.16490406	      9.10550162	     -4.43763350	    -10.84764836	     18.72121273	     -2.73075209	     -2.70228506	     45.93403619	      5.46256159	      0.80170017	      4.14157158	    -13.73520357	     -8.16110877	    -21.01415307	      5.74913771	      4.22384101	      8.74602676	    -17.57307367	     -9.79204080	     54.10786591	     90.00000001	      0.00000000	      0.00000000	     -3.11903965	    -10.04462142	      2.66671705	     35.95547640	     90.00000001	      0.00000000	      0.00000000
      2.05000000	      2.52766424	     10.07599648	     92.46882482	      0.47988245	      0.97312215	     -0.65640221	    -17.82791507	      4.27658319	     -1.72939467	      8.67645739	      5.96791786	      0.15143275	      9.05211526	     -4.08027867	    -10.84992867	     18.76526031	     -2.59739611	     -2.80475591	     41.90208479	      5.46256159	      0.73132934	      3.88705490	    -13.18956470	     -7.72205597	    -21.30768546	      5.55808901	      4.38418117	      9.55118168	    -17.89124544	     -9.59649590	     55.17659290	     90.00000001	      0.00000000	      0.00000000	     -3.62747629	     -9.85159596	      2.35746164	     35.21143301	     90.00000001	      0.00000000	      0.00000000
      2.06000000	      2.79884426	      8.85646733	     91.51131649	      0.47809627	      0.97120008	     -0.65766538	    -17.74764457	      3.96686794	     -1.11330194	      8.14107432	      5.96791786	      0.14208855	      8.97767646	     -3.15996452	    -10.92018853	     19.86773828	     -2.88465404	     -3.30990542	     37.77165843	      5.46256159	      0.65923980	      3.84053785	    -12.51089039	     -7.38588798	    -19.92152692	      5.87854574	      5.24838527	      9.88276968	    -18.70919253	     -9.17076190	     55.95717465	     90.00000001	      0.00000000	      0.00000000	     -4.68145485	     -9.04216262	      2.14371422	     34.15197285	     90.00000001	      0.00000000	      0.00000000
      2.07000000	      2.44258747	      9.82400369	     91.91529337	      0.47884410	      0.97081101	     -0.65587379	    -20.06106601	      3.80288281	     -1.45530961	      7.41206925	      5.96791786	      0.12936501	      9.10703540	     -2.91769165	    -10.94106300	     18.74591732	     -2.63007270	     -3.09843499	     33.32540767	      5.46256159	      0.58163809	      3.68254746	    -11.05283972	     -7.17544810	    -21.31305688	      5.45302509	      4.88114788	     10.93939022	    -18.77589306	     -8.83541142	     57.20774208	     90.00000001	      0.00000000	      0.00000000	     -4.81988249	     -9.25488921	      1.91061225	     33.44704321	     90.00000001	      0.00000000	      0.00000000
      2.08000000	      2.55591808	      9.37641956	     91.76051257	      0.47840235	      0.96902456	     -0.65545063	    -20.71490226	      3.78986925	     -1.38381825	      6.95208432	      5.96791786	      0.12133676	      9.08231520	     -2.47988865	    -10.98057285	     18.99789946	     -2.83757641	     -3.12177649	     28.86861821	      5.46256159	      0.50385244	      3.55652591	     -9.61546714	     -7.00248764	    -20.98239992	      5.56023214	      5.06720649	     11.61843071	    -19.15121217	     -8.50024710	     57.98173022	     90.00000001	      0.00000000	      0.00000000	     -5.42455719	     -9.04657081	      1.82539212	     32.83611700	     90.00000001	      0.00000000	      0.00000000
      2.09000000	      3.06095253	      8.87082837	     91.70501915	      0.47777187	      0.96670744	     -0.65470888	    -21.18064513	      4.23181412	     -1.22123384	      6.67954787	      5.96791786	      0.11658010	      9.15703650	     -2.05654551	    -11.06443356	     19.43916294	     -3.41703072	     -2.82258679	     24.72239344	      5.46256159	      0.43148716	      3.98672947	     -8.02637284	     -6.98300911	    -20.60880962	      6.16277210	      5.07809514	     12.45365023	    -19.41723689	     -8.35389587	     58.83342753	     90.00000001	      0.00000000	      0.00000000	     -6.08887591	     -8.81658047	      1.81113376	     32.33795887	     90.00000001	      0.00000000	      0.00000000
      2.10000000	      2.58329877	      9.09104665	     91.42470303	      0.47771338	      0.96579031	     -0.65492432	    -22.62023841	      3.53730868	     -1.46336835	      6.25215980	      5.96791786	      0.10912077	      9.26439907	     -1.29306181	    -11.35107881	     18.31179894	     -3.17535316	     -3.46629375	     19.59825250	      5.46256159	      0.34205403	      4.18944747	     -6.20706102	     -7.09426553	    -21.00884490	      5.55759066	      5.31233224	     13.00481330	    -19.73523841	     -7.83602119	     59.67486615	     90.00000001	      0.00000000	      0.00000000	     -6.36218361	     -8.71529180	      1.50991641	     31.24074819	     90.00000001	      0.00000000	      0.00000000
      2.11000000	      3.17662694	      8.55450784	     91.51092393	      0.47688886	      0.96311958	     -0.65461485	    -23.01068166	      4.11971990	     -1.54909576	      6.12358124	      5.96791786	      0.10687665	      9.26663399	     -0.84664603	    -11.49074653	     18.66586764	     -3.80791842	     -3.25701587	     15.69744884	      5.46256159	      0.27397217	      5.08192542	     -4.74342525	     -7.27335962	    -20.55897678	      6.28959532	      5.22275499	     13.71596584	    -19.97298811	     -7.75882777	     60.41698322	     90.00000001	      0.00000000	      0.00000000	     -7.03914934	     -8.53087255	      1.50432420	     30.91964634	     90.00000001	      0.00000000	      0.00000000
      2.12000000	      2.77461107	      8.91717234	     91.16805903	      0.47659314	      0.96201028	     -0.65466537	    -24.37832995	      3.42042519	     -2.29696328	      6.13762274	      5.96791786	      0.10712173	      9.41788685	      0.83496290	    -12.82610428	     17.17700082	     -3.56205523	     -3.79024401	     10.61327660	      5.46256159	      0.18523662	      4.72662905	     -3.84363220	     -8.69456248	    -21.18605354	      5.76012729	      5.48175874	     14.34477194	    -20.25662442	     -7.35703636	     61.17452776	     90.00000001	      0.00000000	      0.00000000	     -7.33554366	     -8.39514886	      0.99114852	     30.39385971	     90.00000001	      0.00000000	      0.00000000
      2.13000000	      3.00083317	      8.60750168	     91.02799869	      0.47603902	      0.95961211	     -0.65477771	    -24.85696161	      3.51107663	     -2.61090450	      6.39505771	      5.96791786	      0.11161481	      9.50328451	      1.54494090	    -13.44357947	     16.96893215	     -3.88844426	     -4.36147281	      6.97745059	      5.46256159	      0.12177949	      5.38427092	     -1.95215347	     -9.51368622	    -20.97314419	      5.99638119	      5.61596286	     14.89864739	    -20.56734309	     -6.96220786	     61.74849032	     90.00000001	      0.00000000	      0.00000000	     -7.72996781	     -8.23982793	      0.93720688	     29.74791941	     90.00000001	      0.00000000	      0.00000000
      2.14000000	      3.26807993	      8.30800956	     91.10089638	      0.47499775	      0.95703741	     -0.65490105	    -25.22413384	      3.69268187	     -3.37481849	      6.87611260	      5.96791786	      0.12001080	      9.24267919	      2.44297929	    -15.59700897	     16.81049431	     -4.15160376	     -4.67072850	      3.74631668	      5.46256159	      0.06538556	      5.03749651	     -0.63914948	    -12.57691596	    -20.76080934	      6.35038562	      5.50584984	     15.47072943	    -20.80676003	     -6.63744045	     62.27286747	     90.00000001	      0.00000000	      0.00000000	     -8.19294526	     -8.09593143	      0.74614888	     29.42740702	     90.00000001	      0.00000000	      0.00000000
      2.15000000	      3.70467540	      7.88283647	     91.28799395	      0.47372170	      0.95414611	     -0.65507184	    -25.39619184	      4.13145368	     -3.78109383	      7.44537866	      5.96791786	      0.12994637	      9.23351234	      2.73477677	    -15.80637371	     17.07496486	     -4.50450524	     -5.02764746	      1.69304744	      5.46256159	      0.02954925	      5.51351171	      0.99170584	    -12.78485096	    -20.36712483	      6.94075432	      5.33641758	     15.95605086	    -20.98679002	     -6.51980679	     62.75609086	     90.00000001	      0.00000000	      0.00000000	     -8.64044968	     -7.98120733	      0.78369046	     29.14004893	     90.00000001	      0.00000000	      0.00000000
